Coordinates
version=1
nRows=24
nColumns=26
inDegrees=yes

Units are S.I. units (second, meters, Newtons, ...)
If the header above contains a line with 'inDegrees', this indicates whether rotational values are in degrees (yes) or radians (no).

endheader
time	pelvis_tilt	pelvis_list	pelvis_rotation	pelvis_tx	pelvis_ty	pelvis_tz	hip_flexion_r	hip_adduction_r	hip_rotation_r	knee_angle_r	knee_angle_r_beta	ankle_angle_r	subtalar_angle_r	mtp_angle_r	hip_flexion_l	hip_adduction_l	hip_rotation_l	knee_angle_l	knee_angle_l_beta	ankle_angle_l	subtalar_angle_l	mtp_angle_l	lumbar_ext	lumbar_bend	lumbar_rota
      0.00000000	     -8.40097479	     -2.86288160	      2.78128766	      1.48266388	      0.92646903	     -0.37515833	     18.37190803	      5.28764548	     -2.80229003	     41.15503068	      0.71829079	      6.90388696	     -5.78631187	      0.00000000	     37.54459923	     -0.34180717	      5.03891446	    110.23299050	      1.92392863	     -4.41730323	     29.62859448	      0.00000000	     -9.72173600	      9.71974396	      1.69634347
      0.01000000	    -13.33089703	     -0.14103961	     -3.66323222	      1.47625964	      0.92060200	     -0.35742107	     22.36456172	      5.73123311	      4.68016250	     42.78738083	      0.74678067	      6.17248806	     -6.62978081	      0.00000000	     45.84557657	     -3.41264487	     -1.59588293	    109.19829060	      1.90586971	     -1.82459397	     33.32657971	      0.00000000	     -4.60972610	      4.26906452	      9.45427599
      0.02000000	    -13.99775981	     -0.32615417	     -3.14992837	      1.47726896	      0.92546600	     -0.35619012	     19.13050794	      5.58751926	      4.47783696	     39.97239307	      0.69764987	      3.67915716	     -6.21020855	      0.00000000	     48.93412641	     -4.53408722	     -1.82997407	    106.21848945	      1.85386237	     -2.36440578	     30.06863709	      0.00000000	     -3.18955160	      3.93792372	     10.63106163
      0.03000000	    -13.72092956	      0.19336277	     -2.36909426	      1.48040166	      0.93368058	     -0.35560692	     14.50572040	      4.58803439	      4.54697223	     36.16912533	      0.63127032	      0.06483616	     -5.58725363	      0.00000000	     50.39981391	     -3.69023352	     -2.52996129	    102.32899014	      1.78597780	     -0.92170687	     28.89900091	      0.00000000	     -2.71905185	      2.70014485	     11.46224079
      0.04000000	     -7.81836257	     -2.01851673	      5.38084783	      1.49205629	      0.95513332	     -0.37221763	      0.30360343	      5.27225180	     -2.88413841	     25.30193828	      0.44160213	     -9.86196969	     -3.72502878	      0.00000000	     45.12555977	      0.81846598	      2.74577327	     96.65513972	      1.68695043	     -0.24952530	     26.62451917	      0.00000000	     -7.51817623	      6.36486754	      5.75062461
      0.05000000	     -7.51271810	     -1.68744543	      6.69277160	      1.49599351	      0.96394621	     -0.37319434	     -4.60939989	      5.20906953	     -3.72330782	     19.92201013	      0.34770467	    -17.96143371	     -3.07927574	      0.00000000	     45.64914249	      2.07889961	      2.39571717	     91.60497978	      1.59880851	      0.31398988	     24.65095767	      0.00000000	     -6.96598054	      5.62573357	      5.60963394
      0.06000000	     -7.74746141	     -1.18143072	      7.72326073	      1.49997448	      0.97119650	     -0.37346016	     -8.63905517	      4.95705353	     -4.33262157	     14.97656877	      0.26139044	    -26.12524347	     -2.04748068	      0.00000000	     46.44801861	      3.24274939	      1.55550528	     86.21171704	      1.50467832	      0.66750385	     22.63868586	      0.00000000	     -5.90479881	      4.41175028	      5.86494274
      0.07000000	    -16.33774329	      3.10404161	      1.59391185	      1.49492091	      0.95868465	     -0.35634538	      0.42311771	     -0.43866693	      1.54186872	     18.97958757	      0.33125629	    -22.13990253	     -0.07845857	      0.00000000	     56.51554859	      1.00822132	     -7.08151932	     81.56427415	      1.42356514	      1.73519764	     22.41263129	      0.00000000	      3.61329442	     -2.96973756	     13.02116226
      0.08000000	    -18.02774588	      4.15205293	      2.69601848	      1.49773986	      0.96246151	     -0.35712926	     -1.40574718	     -2.07599845	      0.41981012	     15.09481653	      0.26345425	    -28.20641019	      2.37291298	      0.00000000	     58.20926892	      2.79670852	     -8.39023679	     75.01182159	      1.30920326	      1.57916117	     21.44019195	      0.00000000	      6.17100699	     -4.82823843	     13.07224384
      0.09000000	    -20.17799339	      4.89091926	      3.81768863	      1.49962494	      0.96496838	     -0.35767471	     -2.17799021	     -3.42398175	     -1.20460007	     12.16465273	      0.21231324	    -33.68569352	      4.98828378	      0.00000000	     60.16563260	      4.37868056	     -9.43916729	     68.17473847	      1.18987365	      1.67872907	     21.93126981	      0.00000000	      9.13400860	     -6.48843866	     13.43991970
      0.10000000	    -20.91686155	      4.50239964	      0.55763647	      1.50353513	      0.96843056	     -0.34423117	     -3.22869289	     -2.70205545	      2.57273782	     10.50385361	      0.18332683	    -38.33116087	      4.53115659	      0.00000000	     57.05928727	     -3.38459609	    -13.32196095	     57.48865347	      1.00336629	    -18.81322979	    -34.84967909	      0.00000000	     10.90310600	     -6.81395746	     16.89342591
      0.11000000	    -23.05763149	      6.05310765	      5.31539954	      1.50373515	      0.97150513	     -0.35661036	     -3.31197628	     -5.18209352	     -2.33058822	     11.01814694	      0.19230294	    -38.79515757	      5.99471456	      0.00000000	     60.97196649	      6.94506337	    -11.09485459	     52.64483427	      0.91882569	      2.70184973	     25.36887578	      0.00000000	     12.99815097	     -9.42237229	     13.54258517
      0.12000000	    -22.19593922	      4.95779985	      2.73709758	      1.50830727	      0.97664510	     -0.34530242	     -4.87814952	     -3.01191955	      5.13886610	     12.27453869	      0.21423111	    -38.77053995	      2.34891812	      0.00000000	     54.85382521	      0.16683612	    -16.15517844	     39.40012550	      0.68766192	    -21.57813934	    -34.79653514	      0.00000000	     12.93259600	     -8.71527000	     16.05619617
      0.13000000	    -22.10347424	      3.32290431	      2.51225172	      1.51083780	      0.97898940	     -0.34195780	     -5.55421180	     -0.38899348	     10.54269649	     14.61744663	      0.25512257	    -38.48189753	      0.09514907	      0.00000000	     53.40579554	      0.48557930	    -13.72478538	     30.83109693	      0.53810415	    -23.49769609	    -34.77394399	      0.00000000	     13.24122337	     -7.36648371	     16.29836161
      0.14000000	    -21.60403727	      1.76202193	      2.10219314	      1.51304940	      0.98065349	     -0.33883084	     -6.22847540	      2.32661319	     15.31569510	     18.05224645	      0.31507114	    -37.94789139	     -1.43064844	      0.00000000	     51.44586292	      0.26317030	    -11.98189106	     22.84060308	      0.39864373	    -26.30969259	    -34.71900889	      0.00000000	      8.84982651	     -7.35753086	     15.96179071
      0.15000000	    -20.96178593	      0.01400284	      2.14533375	      1.51455261	      0.98164698	     -0.33763471	     -6.64314861	      5.09477834	     17.69239825	     22.28250802	      0.38890313	    -36.98112938	     -0.63402066	      0.00000000	     49.38003431	      0.05774067	     -9.75171853	     15.60274371	      0.27231925	    -28.58077079	    -34.59560895	      0.00000000	      8.28787266	     -5.59631920	     15.77484357
      0.16000000	    -19.92276260	     -2.05167974	      1.20323256	      1.51665308	      0.98167542	     -0.33369925	     -7.20625633	      8.34178119	     20.45586919	     27.13488088	      0.47359301	    -35.80934348	      0.86815651	      0.00000000	     48.08043076	     -1.66649347	     -7.62107291	     11.73324626	      0.20478378	    -29.06746274	    -34.55994371	      0.00000000	      7.20645219	     -3.35621045	     16.19688945
      0.17000000	    -18.64794739	     -3.56925895	      1.58091261	      1.51793224	      0.98217417	     -0.33372360	     -7.58413221	     10.76035623	     20.42935634	     32.36335390	      0.56484708	    -34.25767279	      2.90889581	      0.00000000	     46.38229002	     -2.08327594	     -4.97836171	      8.67883563	      0.15147426	    -28.08593020	    -34.47633148	      0.00000000	      9.63993102	     -0.43753828	     15.94804160
      0.18000000	    -17.67720474	     -4.67701046	      2.43780773	      1.51813826	      0.98120849	     -0.33494725	     -6.91365548	     12.59690917	     18.67770676	     38.60539534	      0.67379126	    -32.05455484	      5.05173971	      0.00000000	     45.09539299	     -1.93918493	     -1.77135509	      6.71571815	      0.11721139	    -27.11307645	    -34.33968848	      0.00000000	      8.32648836	      0.65142474	     14.90099237
      0.19000000	    -16.92368165	     -5.38191293	      3.56464266	      1.51750676	      0.97899251	     -0.33712825	     -5.43452011	     13.77773345	     16.05920016	     45.48304378	      0.79382887	    -29.94180645	      6.18794099	      0.00000000	     44.05259718	     -1.42216979	      2.51325124	      5.99671022	      0.10466234	    -26.25836795	    -34.18717359	      0.00000000	      7.10680243	      1.28272466	     13.35921343
      0.20000000	    -16.07287775	     -6.05843028	      4.20119580	      1.51669437	      0.97548114	     -0.33834917	     -3.80541153	     14.56482786	     13.33123615	     52.55386537	      0.91723799	    -28.46571533	      7.02121100	      0.00000000	     42.79582146	     -1.40641229	      4.04015529	      5.76107257	      0.10054968	    -25.77518746	    -34.12746684	      0.00000000	      5.83261817	      1.89150011	     12.45328191
      0.21000000	    -15.50098296	     -6.08789267	      5.53131660	      1.51542750	      0.97078497	     -0.34164211	     -1.51379722	     13.98101937	      9.45270197	     59.84099694	      1.04442242	    -26.19482185	      7.10369192	      0.00000000	     41.36611591	     -0.42314553	      5.97949794	      5.76572038	      0.10063080	    -26.03131410	    -33.87389111	      0.00000000	      4.85096027	      1.84093155	     10.92406356
      0.22000000	    -15.38513406	     -6.18818095	      6.30414547	      1.51357954	      0.96354185	     -0.34354958	      1.42507725	     13.18983568	      6.13018554	     67.33948468	      1.17529572	    -24.35026992	      6.42491195	      0.00000000	     40.85183505	      0.21478231	      7.81198268	      7.23151503	      0.12621375	    -26.39366578	    -33.87181387	      0.00000000	     -0.02134037	      0.97380978	      9.55749074
      0.23000000	    -15.12653950	     -6.00084692	      6.95852972	      1.51176916	      0.95639506	     -0.34509016	      4.18468997	     11.87914252	      3.40068217	     74.58634716	      1.30177733	    -22.32401334	      5.24870648	      0.00000000	     39.98326326	      0.89056982	      9.22549923	      9.15539787	      0.15979184	    -26.89436807	    -33.88261351	      0.00000000	     -0.68677472	      0.78414986	      8.32383147
